# xmcd CD database file
#
# Track frame offsets:
#	150
#	15258
#	30014
#	44255
#	56925
#	70998
#	83574
#	96483
#	111794
#	124314
#	134732
#	146833
#	159277
#	173266
#	188314
#	200775
#	213975
#	226413
#	240332
#	253148
#	264969
#	276418
#	287956
#	300020
#	315033
#
# Disc length: 4370 seconds
#
# Revision: 5
# Processed by: cddbd v1.5.2PL0 Copyright (c) Steve Scherf et al.
# Submitted via: CDex 1.51
#
DISCID=51111019
DTITLE=Reinhardt and Grappelli - Django Reinhardt and Stéphane Grappelli  de 1929 à 1956  [CD 1-2]
DYEAR=2010
DGENRE=Jazz
TTITLE0=I Can't Give You Anything But Love   [1936]
TTITLE1=Nuages   [1940]
TTITLE2=Les Yeux Noirs   [1947]
TTITLE3=Tea For Two   [1937]
TTITLE4=After You've Gone   [1949]
TTITLE5=Honeysuckle Rose   [1949]
TTITLE6=You're Driving Me Crazy   [1956]
TTITLE7=Chicago   [1954]
TTITLE8=Stompin' At The Savoy   [1945]
TTITLE9=La Cigale Et La Fourmi   [1941]
TTITLE10=I've Found A New Baby   [1949]
TTITLE11=Minor Blues   [1947]
TTITLE12=Swing 41   [1949]
TTITLE13=Taj Mahal   [1937]
TTITLE14=All Of Me   [1940]
TTITLE15=Djangology   [1952]
TTITLE16=Lambeth Walk   [1940]
TTITLE17=Body And Soul   [1937]
TTITLE18=Just One Of Those Things   [1947]
TTITLE19=The Continental   [1935]
TTITLE20=Begin The Beguine   [1940]
TTITLE21=Harlem Swing   [1937]
TTITLE22=Japanese Sandman   [1937]
TTITLE23=Manoir De Mes Rêves   [1943]
TTITLE24=Charleston   [1954]
EXTD=YEAR: 2010
EXTT0=
EXTT1=
EXTT2=
EXTT3=
EXTT4=
EXTT5=
EXTT6=
EXTT7=
EXTT8=
EXTT9=
EXTT10=
EXTT11=
EXTT12=
EXTT13=
EXTT14=
EXTT15=
EXTT16=
EXTT17=
EXTT18=
EXTT19=
EXTT20=
EXTT21=
EXTT22=
EXTT23=
EXTT24=
PLAYORDER=
